<?xml version="1.0" encoding="utf-8" standalone="no"?>
<!DOCTYPE svg PUBLIC "-//W3C//DTD SVG 1.1//EN"
  "http://www.w3.org/Graphics/SVG/1.1/DTD/svg11.dtd">
<svg xmlns:xlink="http://www.w3.org/1999/xlink" width="792pt" height="374.4pt" viewBox="0 0 792 374.4" xmlns="http://www.w3.org/2000/svg" version="1.1">
 <metadata>
  <rdf:RDF xmlns:dc="http://purl.org/dc/elements/1.1/" xmlns:cc="http://creativecommons.org/ns#" xmlns:rdf="http://www.w3.org/1999/02/22-rdf-syntax-ns#">
   <cc:Work>
    <dc:type rdf:resource="http://purl.org/dc/dcmitype/StillImage"/>
    <dc:date>2026-05-02T07:43:09.355384</dc:date>
    <dc:format>image/svg+xml</dc:format>
    <dc:creator>
     <cc:Agent>
      <dc:title>Matplotlib v3.10.8, https://matplotlib.org/</dc:title>
     </cc:Agent>
    </dc:creator>
   </cc:Work>
  </rdf:RDF>
 </metadata>
 <defs>
  <style type="text/css">*{stroke-linejoin: round; stroke-linecap: butt}</style>
 </defs>
 <g id="figure_1">
  <g id="patch_1">
   <path d="M 0 374.4 
L 792 374.4 
L 792 0 
L 0 0 
z
" style="fill: #ffffff"/>
  </g>
  <g id="axes_1">
   <g id="patch_2">
    <path d="M 57.17 332.44 
L 657.19038 332.44 
L 657.19038 83.808 
L 57.17 83.808 
z
" style="fill: #ffffff"/>
   </g>
   <g id="patch_3">
    <path d="M 57.17 332.44 
L 123.838931 332.44 
L 123.838931 83.808 
L 57.17 83.808 
z
" clip-path="url(#p92872a2d10)" style="fill: #d0d0d0; opacity: 0.4; stroke: #d0d0d0; stroke-linejoin: miter"/>
   </g>
   <g id="patch_4">
    <path d="M 123.838931 332.44 
L 257.176793 332.44 
L 257.176793 83.808 
L 123.838931 83.808 
z
" clip-path="url(#p92872a2d10)" style="fill: #b8b8b8; opacity: 0.35; stroke: #b8b8b8; stroke-linejoin: miter"/>
   </g>
   <g id="patch_5">
    <path d="M 257.176793 332.44 
L 390.514656 332.44 
L 390.514656 83.808 
L 257.176793 83.808 
z
" clip-path="url(#p92872a2d10)" style="fill: #c04a4a; opacity: 0.35; stroke: #c04a4a; stroke-linejoin: miter"/>
   </g>
   <g id="patch_6">
    <path d="M 390.514656 332.44 
L 523.852518 332.44 
L 523.852518 83.808 
L 390.514656 83.808 
z
" clip-path="url(#p92872a2d10)" style="fill: #6caf6c; opacity: 0.25; stroke: #6caf6c; stroke-linejoin: miter"/>
   </g>
   <g id="patch_7">
    <path d="M 523.852518 332.44 
L 657.19038 332.44 
L 657.19038 83.808 
L 523.852518 83.808 
z
" clip-path="url(#p92872a2d10)" style="fill: #b8b8b8; opacity: 0.35; stroke: #b8b8b8; stroke-linejoin: miter"/>
   </g>
   <g id="matplotlib.axis_1">
    <g id="xtick_1">
     <g id="line2d_1">
      <defs>
       <path id="m14bc449275" d="M 0 0 
L 0 3.5 
" style="stroke: #000000; stroke-width: 0.8"/>
      </defs>
      <g>
       <use xlink:href="#m14bc449275" x="57.17" y="332.44" style="stroke: #000000; stroke-width: 0.8"/>
      </g>
     </g>
     <g id="text_1">
      <!-- 0s -->
      <g transform="translate(51.384063 347.038438) scale(0.1 -0.1)">
       <defs>
        <path id="DejaVuSans-30" d="M 2034 4250 
Q 1547 4250 1301 3770 
Q 1056 3291 1056 2328 
Q 1056 1369 1301 889 
Q 1547 409 2034 409 
Q 2525 409 2770 889 
Q 3016 1369 3016 2328 
Q 3016 3291 2770 3770 
Q 2525 4250 2034 4250 
z
M 2034 4750 
Q 2819 4750 3233 4129 
Q 3647 3509 3647 2328 
Q 3647 1150 3233 529 
Q 2819 -91 2034 -91 
Q 1250 -91 836 529 
Q 422 1150 422 2328 
Q 422 3509 836 4129 
Q 1250 4750 2034 4750 
z
" transform="scale(0.015625)"/>
        <path id="DejaVuSans-73" d="M 2834 3397 
L 2834 2853 
Q 2591 2978 2328 3040 
Q 2066 3103 1784 3103 
Q 1356 3103 1142 2972 
Q 928 2841 928 2578 
Q 928 2378 1081 2264 
Q 1234 2150 1697 2047 
L 1894 2003 
Q 2506 1872 2764 1633 
Q 3022 1394 3022 966 
Q 3022 478 2636 193 
Q 2250 -91 1575 -91 
Q 1294 -91 989 -36 
Q 684 19 347 128 
L 347 722 
Q 666 556 975 473 
Q 1284 391 1588 391 
Q 1994 391 2212 530 
Q 2431 669 2431 922 
Q 2431 1156 2273 1281 
Q 2116 1406 1581 1522 
L 1381 1569 
Q 847 1681 609 1914 
Q 372 2147 372 2553 
Q 372 3047 722 3315 
Q 1072 3584 1716 3584 
Q 2034 3584 2315 3537 
Q 2597 3491 2834 3397 
z
" transform="scale(0.015625)"/>
       </defs>
       <use xlink:href="#DejaVuSans-30"/>
       <use xlink:href="#DejaVuSans-73" transform="translate(63.623047 0)"/>
      </g>
     </g>
    </g>
    <g id="xtick_2">
     <g id="line2d_2">
      <g>
       <use xlink:href="#m14bc449275" x="168.284885" y="332.44" style="stroke: #000000; stroke-width: 0.8"/>
      </g>
     </g>
     <g id="text_2">
      <!-- 50s -->
      <g transform="translate(159.317698 347.038438) scale(0.1 -0.1)">
       <defs>
        <path id="DejaVuSans-35" d="M 691 4666 
L 3169 4666 
L 3169 4134 
L 1269 4134 
L 1269 2991 
Q 1406 3038 1543 3061 
Q 1681 3084 1819 3084 
Q 2600 3084 3056 2656 
Q 3513 2228 3513 1497 
Q 3513 744 3044 326 
Q 2575 -91 1722 -91 
Q 1428 -91 1123 -41 
Q 819 9 494 109 
L 494 744 
Q 775 591 1075 516 
Q 1375 441 1709 441 
Q 2250 441 2565 725 
Q 2881 1009 2881 1497 
Q 2881 1984 2565 2268 
Q 2250 2553 1709 2553 
Q 1456 2553 1204 2497 
Q 953 2441 691 2322 
L 691 4666 
z
" transform="scale(0.015625)"/>
       </defs>
       <use xlink:href="#DejaVuSans-35"/>
       <use xlink:href="#DejaVuSans-30" transform="translate(63.623047 0)"/>
       <use xlink:href="#DejaVuSans-73" transform="translate(127.246094 0)"/>
      </g>
     </g>
    </g>
    <g id="xtick_3">
     <g id="line2d_3">
      <g>
       <use xlink:href="#m14bc449275" x="279.39977" y="332.44" style="stroke: #000000; stroke-width: 0.8"/>
      </g>
     </g>
     <g id="text_3">
      <!-- 1m40s -->
      <g transform="translate(262.38102 347.038438) scale(0.1 -0.1)">
       <defs>
        <path id="DejaVuSans-31" d="M 794 531 
L 1825 531 
L 1825 4091 
L 703 3866 
L 703 4441 
L 1819 4666 
L 2450 4666 
L 2450 531 
L 3481 531 
L 3481 0 
L 794 0 
L 794 531 
z
" transform="scale(0.015625)"/>
        <path id="DejaVuSans-6d" d="M 3328 2828 
Q 3544 3216 3844 3400 
Q 4144 3584 4550 3584 
Q 5097 3584 5394 3201 
Q 5691 2819 5691 2113 
L 5691 0 
L 5113 0 
L 5113 2094 
Q 5113 2597 4934 2840 
Q 4756 3084 4391 3084 
Q 3944 3084 3684 2787 
Q 3425 2491 3425 1978 
L 3425 0 
L 2847 0 
L 2847 2094 
Q 2847 2600 2669 2842 
Q 2491 3084 2119 3084 
Q 1678 3084 1418 2786 
Q 1159 2488 1159 1978 
L 1159 0 
L 581 0 
L 581 3500 
L 1159 3500 
L 1159 2956 
Q 1356 3278 1631 3431 
Q 1906 3584 2284 3584 
Q 2666 3584 2933 3390 
Q 3200 3197 3328 2828 
z
" transform="scale(0.015625)"/>
        <path id="DejaVuSans-34" d="M 2419 4116 
L 825 1625 
L 2419 1625 
L 2419 4116 
z
M 2253 4666 
L 3047 4666 
L 3047 1625 
L 3713 1625 
L 3713 1100 
L 3047 1100 
L 3047 0 
L 2419 0 
L 2419 1100 
L 313 1100 
L 313 1709 
L 2253 4666 
z
" transform="scale(0.015625)"/>
       </defs>
       <use xlink:href="#DejaVuSans-31"/>
       <use xlink:href="#DejaVuSans-6d" transform="translate(63.623047 0)"/>
       <use xlink:href="#DejaVuSans-34" transform="translate(161.035156 0)"/>
       <use xlink:href="#DejaVuSans-30" transform="translate(224.658203 0)"/>
       <use xlink:href="#DejaVuSans-73" transform="translate(288.28125 0)"/>
      </g>
     </g>
    </g>
    <g id="xtick_4">
     <g id="line2d_4">
      <g>
       <use xlink:href="#m14bc449275" x="390.514656" y="332.44" style="stroke: #000000; stroke-width: 0.8"/>
      </g>
     </g>
     <g id="text_4">
      <!-- 2m30s -->
      <g transform="translate(373.495906 347.038438) scale(0.1 -0.1)">
       <defs>
        <path id="DejaVuSans-32" d="M 1228 531 
L 3431 531 
L 3431 0 
L 469 0 
L 469 531 
Q 828 903 1448 1529 
Q 2069 2156 2228 2338 
Q 2531 2678 2651 2914 
Q 2772 3150 2772 3378 
Q 2772 3750 2511 3984 
Q 2250 4219 1831 4219 
Q 1534 4219 1204 4116 
Q 875 4013 500 3803 
L 500 4441 
Q 881 4594 1212 4672 
Q 1544 4750 1819 4750 
Q 2544 4750 2975 4387 
Q 3406 4025 3406 3419 
Q 3406 3131 3298 2873 
Q 3191 2616 2906 2266 
Q 2828 2175 2409 1742 
Q 1991 1309 1228 531 
z
" transform="scale(0.015625)"/>
        <path id="DejaVuSans-33" d="M 2597 2516 
Q 3050 2419 3304 2112 
Q 3559 1806 3559 1356 
Q 3559 666 3084 287 
Q 2609 -91 1734 -91 
Q 1441 -91 1130 -33 
Q 819 25 488 141 
L 488 750 
Q 750 597 1062 519 
Q 1375 441 1716 441 
Q 2309 441 2620 675 
Q 2931 909 2931 1356 
Q 2931 1769 2642 2001 
Q 2353 2234 1838 2234 
L 1294 2234 
L 1294 2753 
L 1863 2753 
Q 2328 2753 2575 2939 
Q 2822 3125 2822 3475 
Q 2822 3834 2567 4026 
Q 2313 4219 1838 4219 
Q 1578 4219 1281 4162 
Q 984 4106 628 3988 
L 628 4550 
Q 988 4650 1302 4700 
Q 1616 4750 1894 4750 
Q 2613 4750 3031 4423 
Q 3450 4097 3450 3541 
Q 3450 3153 3228 2886 
Q 3006 2619 2597 2516 
z
" transform="scale(0.015625)"/>
       </defs>
       <use xlink:href="#DejaVuSans-32"/>
       <use xlink:href="#DejaVuSans-6d" transform="translate(63.623047 0)"/>
       <use xlink:href="#DejaVuSans-33" transform="translate(161.035156 0)"/>
       <use xlink:href="#DejaVuSans-30" transform="translate(224.658203 0)"/>
       <use xlink:href="#DejaVuSans-73" transform="translate(288.28125 0)"/>
      </g>
     </g>
    </g>
    <g id="xtick_5">
     <g id="line2d_5">
      <g>
       <use xlink:href="#m14bc449275" x="501.629541" y="332.44" style="stroke: #000000; stroke-width: 0.8"/>
      </g>
     </g>
     <g id="text_5">
      <!-- 3m20s -->
      <g transform="translate(484.610791 347.038438) scale(0.1 -0.1)">
       <use xlink:href="#DejaVuSans-33"/>
       <use xlink:href="#DejaVuSans-6d" transform="translate(63.623047 0)"/>
       <use xlink:href="#DejaVuSans-32" transform="translate(161.035156 0)"/>
       <use xlink:href="#DejaVuSans-30" transform="translate(224.658203 0)"/>
       <use xlink:href="#DejaVuSans-73" transform="translate(288.28125 0)"/>
      </g>
     </g>
    </g>
    <g id="xtick_6">
     <g id="line2d_6">
      <g>
       <use xlink:href="#m14bc449275" x="612.744426" y="332.44" style="stroke: #000000; stroke-width: 0.8"/>
      </g>
     </g>
     <g id="text_6">
      <!-- 4m10s -->
      <g transform="translate(595.725676 347.038438) scale(0.1 -0.1)">
       <use xlink:href="#DejaVuSans-34"/>
       <use xlink:href="#DejaVuSans-6d" transform="translate(63.623047 0)"/>
       <use xlink:href="#DejaVuSans-31" transform="translate(161.035156 0)"/>
       <use xlink:href="#DejaVuSans-30" transform="translate(224.658203 0)"/>
       <use xlink:href="#DejaVuSans-73" transform="translate(288.28125 0)"/>
      </g>
     </g>
    </g>
    <g id="text_7">
     <!-- elapsed time -->
     <g transform="translate(324.735659 360.716563) scale(0.1 -0.1)">
      <defs>
       <path id="DejaVuSans-65" d="M 3597 1894 
L 3597 1613 
L 953 1613 
Q 991 1019 1311 708 
Q 1631 397 2203 397 
Q 2534 397 2845 478 
Q 3156 559 3463 722 
L 3463 178 
Q 3153 47 2828 -22 
Q 2503 -91 2169 -91 
Q 1331 -91 842 396 
Q 353 884 353 1716 
Q 353 2575 817 3079 
Q 1281 3584 2069 3584 
Q 2775 3584 3186 3129 
Q 3597 2675 3597 1894 
z
M 3022 2063 
Q 3016 2534 2758 2815 
Q 2500 3097 2075 3097 
Q 1594 3097 1305 2825 
Q 1016 2553 972 2059 
L 3022 2063 
z
" transform="scale(0.015625)"/>
       <path id="DejaVuSans-6c" d="M 603 4863 
L 1178 4863 
L 1178 0 
L 603 0 
L 603 4863 
z
" transform="scale(0.015625)"/>
       <path id="DejaVuSans-61" d="M 2194 1759 
Q 1497 1759 1228 1600 
Q 959 1441 959 1056 
Q 959 750 1161 570 
Q 1363 391 1709 391 
Q 2188 391 2477 730 
Q 2766 1069 2766 1631 
L 2766 1759 
L 2194 1759 
z
M 3341 1997 
L 3341 0 
L 2766 0 
L 2766 531 
Q 2569 213 2275 61 
Q 1981 -91 1556 -91 
Q 1019 -91 701 211 
Q 384 513 384 1019 
Q 384 1609 779 1909 
Q 1175 2209 1959 2209 
L 2766 2209 
L 2766 2266 
Q 2766 2663 2505 2880 
Q 2244 3097 1772 3097 
Q 1472 3097 1187 3025 
Q 903 2953 641 2809 
L 641 3341 
Q 956 3463 1253 3523 
Q 1550 3584 1831 3584 
Q 2591 3584 2966 3190 
Q 3341 2797 3341 1997 
z
" transform="scale(0.015625)"/>
       <path id="DejaVuSans-70" d="M 1159 525 
L 1159 -1331 
L 581 -1331 
L 581 3500 
L 1159 3500 
L 1159 2969 
Q 1341 3281 1617 3432 
Q 1894 3584 2278 3584 
Q 2916 3584 3314 3078 
Q 3713 2572 3713 1747 
Q 3713 922 3314 415 
Q 2916 -91 2278 -91 
Q 1894 -91 1617 61 
Q 1341 213 1159 525 
z
M 3116 1747 
Q 3116 2381 2855 2742 
Q 2594 3103 2138 3103 
Q 1681 3103 1420 2742 
Q 1159 2381 1159 1747 
Q 1159 1113 1420 752 
Q 1681 391 2138 391 
Q 2594 391 2855 752 
Q 3116 1113 3116 1747 
z
" transform="scale(0.015625)"/>
       <path id="DejaVuSans-64" d="M 2906 2969 
L 2906 4863 
L 3481 4863 
L 3481 0 
L 2906 0 
L 2906 525 
Q 2725 213 2448 61 
Q 2172 -91 1784 -91 
Q 1150 -91 751 415 
Q 353 922 353 1747 
Q 353 2572 751 3078 
Q 1150 3584 1784 3584 
Q 2172 3584 2448 3432 
Q 2725 3281 2906 2969 
z
M 947 1747 
Q 947 1113 1208 752 
Q 1469 391 1925 391 
Q 2381 391 2643 752 
Q 2906 1113 2906 1747 
Q 2906 2381 2643 2742 
Q 2381 3103 1925 3103 
Q 1469 3103 1208 2742 
Q 947 2381 947 1747 
z
" transform="scale(0.015625)"/>
       <path id="DejaVuSans-20" transform="scale(0.015625)"/>
       <path id="DejaVuSans-74" d="M 1172 4494 
L 1172 3500 
L 2356 3500 
L 2356 3053 
L 1172 3053 
L 1172 1153 
Q 1172 725 1289 603 
Q 1406 481 1766 481 
L 2356 481 
L 2356 0 
L 1766 0 
Q 1100 0 847 248 
Q 594 497 594 1153 
L 594 3053 
L 172 3053 
L 172 3500 
L 594 3500 
L 594 4494 
L 1172 4494 
z
" transform="scale(0.015625)"/>
       <path id="DejaVuSans-69" d="M 603 3500 
L 1178 3500 
L 1178 0 
L 603 0 
L 603 3500 
z
M 603 4863 
L 1178 4863 
L 1178 4134 
L 603 4134 
L 603 4863 
z
" transform="scale(0.015625)"/>
      </defs>
      <use xlink:href="#DejaVuSans-65"/>
      <use xlink:href="#DejaVuSans-6c" transform="translate(61.523438 0)"/>
      <use xlink:href="#DejaVuSans-61" transform="translate(89.306641 0)"/>
      <use xlink:href="#DejaVuSans-70" transform="translate(150.585938 0)"/>
      <use xlink:href="#DejaVuSans-73" transform="translate(214.0625 0)"/>
      <use xlink:href="#DejaVuSans-65" transform="translate(266.162109 0)"/>
      <use xlink:href="#DejaVuSans-64" transform="translate(327.685547 0)"/>
      <use xlink:href="#DejaVuSans-20" transform="translate(391.162109 0)"/>
      <use xlink:href="#DejaVuSans-74" transform="translate(422.949219 0)"/>
      <use xlink:href="#DejaVuSans-69" transform="translate(462.158203 0)"/>
      <use xlink:href="#DejaVuSans-6d" transform="translate(489.941406 0)"/>
      <use xlink:href="#DejaVuSans-65" transform="translate(587.353516 0)"/>
     </g>
    </g>
   </g>
   <g id="matplotlib.axis_2">
    <g id="ytick_1">
     <g id="line2d_7">
      <path d="M 57.17 324.159281 
L 657.19038 324.159281 
" clip-path="url(#p92872a2d10)" style="fill: none; stroke-dasharray: 0.8,1.32; stroke-dashoffset: 0; stroke: #999999; stroke-opacity: 0.4; stroke-width: 0.8"/>
     </g>
     <g id="line2d_8">
      <defs>
       <path id="mbc5c4fa216" d="M 0 0 
L -3.5 0 
" style="stroke: #000000; stroke-width: 0.8"/>
      </defs>
      <g>
       <use xlink:href="#mbc5c4fa216" x="57.17" y="324.159281" style="stroke: #000000; stroke-width: 0.8"/>
      </g>
     </g>
     <g id="text_8">
      <!-- 0 -->
      <g transform="translate(43.8075 327.9585) scale(0.1 -0.1)">
       <use xlink:href="#DejaVuSans-30"/>
      </g>
     </g>
    </g>
    <g id="ytick_2">
     <g id="line2d_9">
      <path d="M 57.17 279.858853 
L 657.19038 279.858853 
" clip-path="url(#p92872a2d10)" style="fill: none; stroke-dasharray: 0.8,1.32; stroke-dashoffset: 0; stroke: #999999; stroke-opacity: 0.4; stroke-width: 0.8"/>
     </g>
     <g id="line2d_10">
      <g>
       <use xlink:href="#mbc5c4fa216" x="57.17" y="279.858853" style="stroke: #000000; stroke-width: 0.8"/>
      </g>
     </g>
     <g id="text_9">
      <!-- 500 -->
      <g transform="translate(31.0825 283.658071) scale(0.1 -0.1)">
       <use xlink:href="#DejaVuSans-35"/>
       <use xlink:href="#DejaVuSans-30" transform="translate(63.623047 0)"/>
       <use xlink:href="#DejaVuSans-30" transform="translate(127.246094 0)"/>
      </g>
     </g>
    </g>
    <g id="ytick_3">
     <g id="line2d_11">
      <path d="M 57.17 235.558425 
L 657.19038 235.558425 
" clip-path="url(#p92872a2d10)" style="fill: none; stroke-dasharray: 0.8,1.32; stroke-dashoffset: 0; stroke: #999999; stroke-opacity: 0.4; stroke-width: 0.8"/>
     </g>
     <g id="line2d_12">
      <g>
       <use xlink:href="#mbc5c4fa216" x="57.17" y="235.558425" style="stroke: #000000; stroke-width: 0.8"/>
      </g>
     </g>
     <g id="text_10">
      <!-- 1000 -->
      <g transform="translate(24.72 239.357643) scale(0.1 -0.1)">
       <use xlink:href="#DejaVuSans-31"/>
       <use xlink:href="#DejaVuSans-30" transform="translate(63.623047 0)"/>
       <use xlink:href="#DejaVuSans-30" transform="translate(127.246094 0)"/>
       <use xlink:href="#DejaVuSans-30" transform="translate(190.869141 0)"/>
      </g>
     </g>
    </g>
    <g id="ytick_4">
     <g id="line2d_13">
      <path d="M 57.17 191.257996 
L 657.19038 191.257996 
" clip-path="url(#p92872a2d10)" style="fill: none; stroke-dasharray: 0.8,1.32; stroke-dashoffset: 0; stroke: #999999; stroke-opacity: 0.4; stroke-width: 0.8"/>
     </g>
     <g id="line2d_14">
      <g>
       <use xlink:href="#mbc5c4fa216" x="57.17" y="191.257996" style="stroke: #000000; stroke-width: 0.8"/>
      </g>
     </g>
     <g id="text_11">
      <!-- 1500 -->
      <g transform="translate(24.72 195.057215) scale(0.1 -0.1)">
       <use xlink:href="#DejaVuSans-31"/>
       <use xlink:href="#DejaVuSans-35" transform="translate(63.623047 0)"/>
       <use xlink:href="#DejaVuSans-30" transform="translate(127.246094 0)"/>
       <use xlink:href="#DejaVuSans-30" transform="translate(190.869141 0)"/>
      </g>
     </g>
    </g>
    <g id="ytick_5">
     <g id="line2d_15">
      <path d="M 57.17 146.957568 
L 657.19038 146.957568 
" clip-path="url(#p92872a2d10)" style="fill: none; stroke-dasharray: 0.8,1.32; stroke-dashoffset: 0; stroke: #999999; stroke-opacity: 0.4; stroke-width: 0.8"/>
     </g>
     <g id="line2d_16">
      <g>
       <use xlink:href="#mbc5c4fa216" x="57.17" y="146.957568" style="stroke: #000000; stroke-width: 0.8"/>
      </g>
     </g>
     <g id="text_12">
      <!-- 2000 -->
      <g transform="translate(24.72 150.756787) scale(0.1 -0.1)">
       <use xlink:href="#DejaVuSans-32"/>
       <use xlink:href="#DejaVuSans-30" transform="translate(63.623047 0)"/>
       <use xlink:href="#DejaVuSans-30" transform="translate(127.246094 0)"/>
       <use xlink:href="#DejaVuSans-30" transform="translate(190.869141 0)"/>
      </g>
     </g>
    </g>
    <g id="ytick_6">
     <g id="line2d_17">
      <path d="M 57.17 102.65714 
L 657.19038 102.65714 
" clip-path="url(#p92872a2d10)" style="fill: none; stroke-dasharray: 0.8,1.32; stroke-dashoffset: 0; stroke: #999999; stroke-opacity: 0.4; stroke-width: 0.8"/>
     </g>
     <g id="line2d_18">
      <g>
       <use xlink:href="#mbc5c4fa216" x="57.17" y="102.65714" style="stroke: #000000; stroke-width: 0.8"/>
      </g>
     </g>
     <g id="text_13">
      <!-- 2500 -->
      <g transform="translate(24.72 106.456359) scale(0.1 -0.1)">
       <use xlink:href="#DejaVuSans-32"/>
       <use xlink:href="#DejaVuSans-35" transform="translate(63.623047 0)"/>
       <use xlink:href="#DejaVuSans-30" transform="translate(127.246094 0)"/>
       <use xlink:href="#DejaVuSans-30" transform="translate(190.869141 0)"/>
      </g>
     </g>
    </g>
    <g id="text_14">
     <!-- size (MB, summed) -->
     <g transform="translate(18.640313 255.996656) rotate(-90) scale(0.1 -0.1)">
      <defs>
       <path id="DejaVuSans-7a" d="M 353 3500 
L 3084 3500 
L 3084 2975 
L 922 459 
L 3084 459 
L 3084 0 
L 275 0 
L 275 525 
L 2438 3041 
L 353 3041 
L 353 3500 
z
" transform="scale(0.015625)"/>
       <path id="DejaVuSans-28" d="M 1984 4856 
Q 1566 4138 1362 3434 
Q 1159 2731 1159 2009 
Q 1159 1288 1364 580 
Q 1569 -128 1984 -844 
L 1484 -844 
Q 1016 -109 783 600 
Q 550 1309 550 2009 
Q 550 2706 781 3412 
Q 1013 4119 1484 4856 
L 1984 4856 
z
" transform="scale(0.015625)"/>
       <path id="DejaVuSans-4d" d="M 628 4666 
L 1569 4666 
L 2759 1491 
L 3956 4666 
L 4897 4666 
L 4897 0 
L 4281 0 
L 4281 4097 
L 3078 897 
L 2444 897 
L 1241 4097 
L 1241 0 
L 628 0 
L 628 4666 
z
" transform="scale(0.015625)"/>
       <path id="DejaVuSans-42" d="M 1259 2228 
L 1259 519 
L 2272 519 
Q 2781 519 3026 730 
Q 3272 941 3272 1375 
Q 3272 1813 3026 2020 
Q 2781 2228 2272 2228 
L 1259 2228 
z
M 1259 4147 
L 1259 2741 
L 2194 2741 
Q 2656 2741 2882 2914 
Q 3109 3088 3109 3444 
Q 3109 3797 2882 3972 
Q 2656 4147 2194 4147 
L 1259 4147 
z
M 628 4666 
L 2241 4666 
Q 2963 4666 3353 4366 
Q 3744 4066 3744 3513 
Q 3744 3084 3544 2831 
Q 3344 2578 2956 2516 
Q 3422 2416 3680 2098 
Q 3938 1781 3938 1306 
Q 3938 681 3513 340 
Q 3088 0 2303 0 
L 628 0 
L 628 4666 
z
" transform="scale(0.015625)"/>
       <path id="DejaVuSans-2c" d="M 750 794 
L 1409 794 
L 1409 256 
L 897 -744 
L 494 -744 
L 750 256 
L 750 794 
z
" transform="scale(0.015625)"/>
       <path id="DejaVuSans-75" d="M 544 1381 
L 544 3500 
L 1119 3500 
L 1119 1403 
Q 1119 906 1312 657 
Q 1506 409 1894 409 
Q 2359 409 2629 706 
Q 2900 1003 2900 1516 
L 2900 3500 
L 3475 3500 
L 3475 0 
L 2900 0 
L 2900 538 
Q 2691 219 2414 64 
Q 2138 -91 1772 -91 
Q 1169 -91 856 284 
Q 544 659 544 1381 
z
M 1991 3584 
L 1991 3584 
z
" transform="scale(0.015625)"/>
       <path id="DejaVuSans-29" d="M 513 4856 
L 1013 4856 
Q 1481 4119 1714 3412 
Q 1947 2706 1947 2009 
Q 1947 1309 1714 600 
Q 1481 -109 1013 -844 
L 513 -844 
Q 928 -128 1133 580 
Q 1338 1288 1338 2009 
Q 1338 2731 1133 3434 
Q 928 4138 513 4856 
z
" transform="scale(0.015625)"/>
      </defs>
      <use xlink:href="#DejaVuSans-73"/>
      <use xlink:href="#DejaVuSans-69" transform="translate(52.099609 0)"/>
      <use xlink:href="#DejaVuSans-7a" transform="translate(79.882812 0)"/>
      <use xlink:href="#DejaVuSans-65" transform="translate(132.373047 0)"/>
      <use xlink:href="#DejaVuSans-20" transform="translate(193.896484 0)"/>
      <use xlink:href="#DejaVuSans-28" transform="translate(225.683594 0)"/>
      <use xlink:href="#DejaVuSans-4d" transform="translate(264.697266 0)"/>
      <use xlink:href="#DejaVuSans-42" transform="translate(350.976562 0)"/>
      <use xlink:href="#DejaVuSans-2c" transform="translate(419.580078 0)"/>
      <use xlink:href="#DejaVuSans-20" transform="translate(451.367188 0)"/>
      <use xlink:href="#DejaVuSans-73" transform="translate(483.154297 0)"/>
      <use xlink:href="#DejaVuSans-75" transform="translate(535.253906 0)"/>
      <use xlink:href="#DejaVuSans-6d" transform="translate(598.632812 0)"/>
      <use xlink:href="#DejaVuSans-6d" transform="translate(696.044922 0)"/>
      <use xlink:href="#DejaVuSans-65" transform="translate(793.457031 0)"/>
      <use xlink:href="#DejaVuSans-64" transform="translate(854.980469 0)"/>
      <use xlink:href="#DejaVuSans-29" transform="translate(918.457031 0)"/>
     </g>
    </g>
   </g>
   <g id="patch_8">
    <path d="M 57.17 332.44 
L 57.17 83.808 
" style="fill: none; stroke: #000000; stroke-width: 0.8; stroke-linejoin: miter; stroke-linecap: square"/>
   </g>
   <g id="patch_9">
    <path d="M 57.17 332.44 
L 657.19038 332.44 
" style="fill: none; stroke: #000000; stroke-width: 0.8; stroke-linejoin: miter; stroke-linecap: square"/>
   </g>
   <g id="text_15">
    <!-- warmup · 30s -->
    <g style="fill: #333333" transform="translate(63.249466 79.65793) scale(0.08 -0.08)">
     <defs>
      <path id="DejaVuSans-77" d="M 269 3500 
L 844 3500 
L 1563 769 
L 2278 3500 
L 2956 3500 
L 3675 769 
L 4391 3500 
L 4966 3500 
L 4050 0 
L 3372 0 
L 2619 2869 
L 1863 0 
L 1184 0 
L 269 3500 
z
" transform="scale(0.015625)"/>
      <path id="DejaVuSans-72" d="M 2631 2963 
Q 2534 3019 2420 3045 
Q 2306 3072 2169 3072 
Q 1681 3072 1420 2755 
Q 1159 2438 1159 1844 
L 1159 0 
L 581 0 
L 581 3500 
L 1159 3500 
L 1159 2956 
Q 1341 3275 1631 3429 
Q 1922 3584 2338 3584 
Q 2397 3584 2469 3576 
Q 2541 3569 2628 3553 
L 2631 2963 
z
" transform="scale(0.015625)"/>
      <path id="DejaVuSans-b7" d="M 684 2619 
L 1344 2619 
L 1344 1825 
L 684 1825 
L 684 2619 
z
" transform="scale(0.015625)"/>
     </defs>
     <use xlink:href="#DejaVuSans-77"/>
     <use xlink:href="#DejaVuSans-61" transform="translate(81.787109 0)"/>
     <use xlink:href="#DejaVuSans-72" transform="translate(143.066406 0)"/>
     <use xlink:href="#DejaVuSans-6d" transform="translate(182.429688 0)"/>
     <use xlink:href="#DejaVuSans-75" transform="translate(279.841797 0)"/>
     <use xlink:href="#DejaVuSans-70" transform="translate(343.220703 0)"/>
     <use xlink:href="#DejaVuSans-20" transform="translate(406.697266 0)"/>
     <use xlink:href="#DejaVuSans-b7" transform="translate(438.484375 0)"/>
     <use xlink:href="#DejaVuSans-20" transform="translate(470.271484 0)"/>
     <use xlink:href="#DejaVuSans-33" transform="translate(502.058594 0)"/>
     <use xlink:href="#DejaVuSans-30" transform="translate(565.681641 0)"/>
     <use xlink:href="#DejaVuSans-73" transform="translate(629.304688 0)"/>
    </g>
   </g>
   <g id="text_16">
    <!-- baseline · 1m -->
    <g style="fill: #333333" transform="translate(163.498487 79.65793) scale(0.08 -0.08)">
     <defs>
      <path id="DejaVuSans-62" d="M 3116 1747 
Q 3116 2381 2855 2742 
Q 2594 3103 2138 3103 
Q 1681 3103 1420 2742 
Q 1159 2381 1159 1747 
Q 1159 1113 1420 752 
Q 1681 391 2138 391 
Q 2594 391 2855 752 
Q 3116 1113 3116 1747 
z
M 1159 2969 
Q 1341 3281 1617 3432 
Q 1894 3584 2278 3584 
Q 2916 3584 3314 3078 
Q 3713 2572 3713 1747 
Q 3713 922 3314 415 
Q 2916 -91 2278 -91 
Q 1894 -91 1617 61 
Q 1341 213 1159 525 
L 1159 0 
L 581 0 
L 581 4863 
L 1159 4863 
L 1159 2969 
z
" transform="scale(0.015625)"/>
      <path id="DejaVuSans-6e" d="M 3513 2113 
L 3513 0 
L 2938 0 
L 2938 2094 
Q 2938 2591 2744 2837 
Q 2550 3084 2163 3084 
Q 1697 3084 1428 2787 
Q 1159 2491 1159 1978 
L 1159 0 
L 581 0 
L 581 3500 
L 1159 3500 
L 1159 2956 
Q 1366 3272 1645 3428 
Q 1925 3584 2291 3584 
Q 2894 3584 3203 3211 
Q 3513 2838 3513 2113 
z
" transform="scale(0.015625)"/>
     </defs>
     <use xlink:href="#DejaVuSans-62"/>
     <use xlink:href="#DejaVuSans-61" transform="translate(63.476562 0)"/>
     <use xlink:href="#DejaVuSans-73" transform="translate(124.755859 0)"/>
     <use xlink:href="#DejaVuSans-65" transform="translate(176.855469 0)"/>
     <use xlink:href="#DejaVuSans-6c" transform="translate(238.378906 0)"/>
     <use xlink:href="#DejaVuSans-69" transform="translate(266.162109 0)"/>
     <use xlink:href="#DejaVuSans-6e" transform="translate(293.945312 0)"/>
     <use xlink:href="#DejaVuSans-65" transform="translate(357.324219 0)"/>
     <use xlink:href="#DejaVuSans-20" transform="translate(418.847656 0)"/>
     <use xlink:href="#DejaVuSans-b7" transform="translate(450.634766 0)"/>
     <use xlink:href="#DejaVuSans-20" transform="translate(482.421875 0)"/>
     <use xlink:href="#DejaVuSans-31" transform="translate(514.208984 0)"/>
     <use xlink:href="#DejaVuSans-6d" transform="translate(577.832031 0)"/>
    </g>
   </g>
   <g id="text_17">
    <!-- kill · 1m -->
    <g style="fill: #333333" transform="translate(307.940724 79.65793) scale(0.08 -0.08)">
     <defs>
      <path id="DejaVuSans-6b" d="M 581 4863 
L 1159 4863 
L 1159 1991 
L 2875 3500 
L 3609 3500 
L 1753 1863 
L 3688 0 
L 2938 0 
L 1159 1709 
L 1159 0 
L 581 0 
L 581 4863 
z
" transform="scale(0.015625)"/>
     </defs>
     <use xlink:href="#DejaVuSans-6b"/>
     <use xlink:href="#DejaVuSans-69" transform="translate(57.910156 0)"/>
     <use xlink:href="#DejaVuSans-6c" transform="translate(85.693359 0)"/>
     <use xlink:href="#DejaVuSans-6c" transform="translate(113.476562 0)"/>
     <use xlink:href="#DejaVuSans-20" transform="translate(141.259766 0)"/>
     <use xlink:href="#DejaVuSans-b7" transform="translate(173.046875 0)"/>
     <use xlink:href="#DejaVuSans-20" transform="translate(204.833984 0)"/>
     <use xlink:href="#DejaVuSans-31" transform="translate(236.621094 0)"/>
     <use xlink:href="#DejaVuSans-6d" transform="translate(300.244141 0)"/>
    </g>
   </g>
   <g id="text_18">
    <!-- restart · 1m -->
    <g style="fill: #333333" transform="translate(433.597337 79.65793) scale(0.08 -0.08)">
     <use xlink:href="#DejaVuSans-72"/>
     <use xlink:href="#DejaVuSans-65" transform="translate(38.863281 0)"/>
     <use xlink:href="#DejaVuSans-73" transform="translate(100.386719 0)"/>
     <use xlink:href="#DejaVuSans-74" transform="translate(152.486328 0)"/>
     <use xlink:href="#DejaVuSans-61" transform="translate(191.695312 0)"/>
     <use xlink:href="#DejaVuSans-72" transform="translate(252.974609 0)"/>
     <use xlink:href="#DejaVuSans-74" transform="translate(294.087891 0)"/>
     <use xlink:href="#DejaVuSans-20" transform="translate(333.296875 0)"/>
     <use xlink:href="#DejaVuSans-b7" transform="translate(365.083984 0)"/>
     <use xlink:href="#DejaVuSans-20" transform="translate(396.871094 0)"/>
     <use xlink:href="#DejaVuSans-31" transform="translate(428.658203 0)"/>
     <use xlink:href="#DejaVuSans-6d" transform="translate(492.28125 0)"/>
    </g>
   </g>
   <g id="text_19">
    <!-- recovery · 1m -->
    <g style="fill: #333333" transform="translate(562.763324 79.65793) scale(0.08 -0.08)">
     <defs>
      <path id="DejaVuSans-63" d="M 3122 3366 
L 3122 2828 
Q 2878 2963 2633 3030 
Q 2388 3097 2138 3097 
Q 1578 3097 1268 2742 
Q 959 2388 959 1747 
Q 959 1106 1268 751 
Q 1578 397 2138 397 
Q 2388 397 2633 464 
Q 2878 531 3122 666 
L 3122 134 
Q 2881 22 2623 -34 
Q 2366 -91 2075 -91 
Q 1284 -91 818 406 
Q 353 903 353 1747 
Q 353 2603 823 3093 
Q 1294 3584 2113 3584 
Q 2378 3584 2631 3529 
Q 2884 3475 3122 3366 
z
" transform="scale(0.015625)"/>
      <path id="DejaVuSans-6f" d="M 1959 3097 
Q 1497 3097 1228 2736 
Q 959 2375 959 1747 
Q 959 1119 1226 758 
Q 1494 397 1959 397 
Q 2419 397 2687 759 
Q 2956 1122 2956 1747 
Q 2956 2369 2687 2733 
Q 2419 3097 1959 3097 
z
M 1959 3584 
Q 2709 3584 3137 3096 
Q 3566 2609 3566 1747 
Q 3566 888 3137 398 
Q 2709 -91 1959 -91 
Q 1206 -91 779 398 
Q 353 888 353 1747 
Q 353 2609 779 3096 
Q 1206 3584 1959 3584 
z
" transform="scale(0.015625)"/>
      <path id="DejaVuSans-76" d="M 191 3500 
L 800 3500 
L 1894 563 
L 2988 3500 
L 3597 3500 
L 2284 0 
L 1503 0 
L 191 3500 
z
" transform="scale(0.015625)"/>
      <path id="DejaVuSans-79" d="M 2059 -325 
Q 1816 -950 1584 -1140 
Q 1353 -1331 966 -1331 
L 506 -1331 
L 506 -850 
L 844 -850 
Q 1081 -850 1212 -737 
Q 1344 -625 1503 -206 
L 1606 56 
L 191 3500 
L 800 3500 
L 1894 763 
L 2988 3500 
L 3597 3500 
L 2059 -325 
z
" transform="scale(0.015625)"/>
     </defs>
     <use xlink:href="#DejaVuSans-72"/>
     <use xlink:href="#DejaVuSans-65" transform="translate(38.863281 0)"/>
     <use xlink:href="#DejaVuSans-63" transform="translate(100.386719 0)"/>
     <use xlink:href="#DejaVuSans-6f" transform="translate(155.367188 0)"/>
     <use xlink:href="#DejaVuSans-76" transform="translate(216.548828 0)"/>
     <use xlink:href="#DejaVuSans-65" transform="translate(275.728516 0)"/>
     <use xlink:href="#DejaVuSans-72" transform="translate(337.251953 0)"/>
     <use xlink:href="#DejaVuSans-79" transform="translate(378.365234 0)"/>
     <use xlink:href="#DejaVuSans-20" transform="translate(437.544922 0)"/>
     <use xlink:href="#DejaVuSans-b7" transform="translate(469.332031 0)"/>
     <use xlink:href="#DejaVuSans-20" transform="translate(501.119141 0)"/>
     <use xlink:href="#DejaVuSans-31" transform="translate(532.90625 0)"/>
     <use xlink:href="#DejaVuSans-6d" transform="translate(596.529297 0)"/>
    </g>
   </g>
   <g id="line2d_19">
    <path d="M 64.110236 321.138545 
L 75.221724 317.053908 
L 86.333213 311.758622 
L 97.444701 307.975089 
L 108.55619 302.656268 
L 119.667678 299.054782 
L 130.779167 294.00661 
L 141.890655 290.198157 
L 153.002144 285.406789 
L 164.113632 279.974449 
L 175.225121 276.764745 
L 186.336609 271.468075 
L 197.448098 268.551861 
L 208.559586 263.641435 
L 219.671075 260.156929 
L 230.782564 256.506297 
L 241.894052 252.423736 
L 253.005541 248.535681 
L 264.117029 244.830366 
L 275.228518 241.206037 
L 286.340006 237.622548 
L 297.451495 234.048749 
L 308.562983 230.525481 
L 319.674472 226.958604 
L 330.78596 221.622479 
L 341.897449 216.433099 
L 353.008937 211.157887 
L 364.120426 205.827992 
L 375.231914 200.671837 
L 386.343403 195.047067 
L 397.454891 191.181163 
L 408.56638 187.513918 
L 419.677868 184.029412 
L 430.789357 180.374627 
L 441.900845 176.885276 
L 453.012334 173.199342 
L 464.123822 169.95572 
L 475.235311 166.395765 
L 486.346799 162.896724 
L 497.458288 159.415679 
L 508.569776 153.994414 
L 519.681265 148.585609 
L 530.792754 143.002371 
L 541.904242 137.86006 
L 553.015731 132.537779 
L 564.127219 127.428693 
L 575.238708 123.006957 
L 586.350196 119.606207 
L 597.461685 116.357047 
L 608.573173 112.864928 
L 619.684662 109.35135 
L 630.79615 105.898685 
L 641.907639 102.203061 
L 653.019127 98.393916 
L 664.130616 95.109455 
" clip-path="url(#p92872a2d10)" style="fill: none; stroke: #4e79a7; stroke-width: 1.6; stroke-linecap: square"/>
   </g>
   <g id="text_20">
    <!--  Awa (Rust, native) -->
    <g style="fill: #4e79a7" transform="translate(664.130616 97.592892) scale(0.09 -0.09)">
     <defs>
      <path id="DejaVuSans-41" d="M 2188 4044 
L 1331 1722 
L 3047 1722 
L 2188 4044 
z
M 1831 4666 
L 2547 4666 
L 4325 0 
L 3669 0 
L 3244 1197 
L 1141 1197 
L 716 0 
L 50 0 
L 1831 4666 
z
" transform="scale(0.015625)"/>
      <path id="DejaVuSans-52" d="M 2841 2188 
Q 3044 2119 3236 1894 
Q 3428 1669 3622 1275 
L 4263 0 
L 3584 0 
L 2988 1197 
Q 2756 1666 2539 1819 
Q 2322 1972 1947 1972 
L 1259 1972 
L 1259 0 
L 628 0 
L 628 4666 
L 2053 4666 
Q 2853 4666 3247 4331 
Q 3641 3997 3641 3322 
Q 3641 2881 3436 2590 
Q 3231 2300 2841 2188 
z
M 1259 4147 
L 1259 2491 
L 2053 2491 
Q 2509 2491 2742 2702 
Q 2975 2913 2975 3322 
Q 2975 3731 2742 3939 
Q 2509 4147 2053 4147 
L 1259 4147 
z
" transform="scale(0.015625)"/>
     </defs>
     <use xlink:href="#DejaVuSans-20"/>
     <use xlink:href="#DejaVuSans-41" transform="translate(31.787109 0)"/>
     <use xlink:href="#DejaVuSans-77" transform="translate(96.195312 0)"/>
     <use xlink:href="#DejaVuSans-61" transform="translate(177.982422 0)"/>
     <use xlink:href="#DejaVuSans-20" transform="translate(239.261719 0)"/>
     <use xlink:href="#DejaVuSans-28" transform="translate(271.048828 0)"/>
     <use xlink:href="#DejaVuSans-52" transform="translate(310.0625 0)"/>
     <use xlink:href="#DejaVuSans-75" transform="translate(375.044922 0)"/>
     <use xlink:href="#DejaVuSans-73" transform="translate(438.423828 0)"/>
     <use xlink:href="#DejaVuSans-74" transform="translate(490.523438 0)"/>
     <use xlink:href="#DejaVuSans-2c" transform="translate(529.732422 0)"/>
     <use xlink:href="#DejaVuSans-20" transform="translate(561.519531 0)"/>
     <use xlink:href="#DejaVuSans-6e" transform="translate(593.306641 0)"/>
     <use xlink:href="#DejaVuSans-61" transform="translate(656.685547 0)"/>
     <use xlink:href="#DejaVuSans-74" transform="translate(717.964844 0)"/>
     <use xlink:href="#DejaVuSans-69" transform="translate(757.173828 0)"/>
     <use xlink:href="#DejaVuSans-76" transform="translate(784.957031 0)"/>
     <use xlink:href="#DejaVuSans-65" transform="translate(844.136719 0)"/>
     <use xlink:href="#DejaVuSans-29" transform="translate(905.660156 0)"/>
    </g>
   </g>
   <g id="text_21">
    <!-- Total table + TOAST + index size -->
    <g transform="translate(258.563628 65.808) scale(0.12 -0.12)">
     <defs>
      <path id="DejaVuSans-54" d="M -19 4666 
L 3928 4666 
L 3928 4134 
L 2272 4134 
L 2272 0 
L 1638 0 
L 1638 4134 
L -19 4134 
L -19 4666 
z
" transform="scale(0.015625)"/>
      <path id="DejaVuSans-2b" d="M 2944 4013 
L 2944 2272 
L 4684 2272 
L 4684 1741 
L 2944 1741 
L 2944 0 
L 2419 0 
L 2419 1741 
L 678 1741 
L 678 2272 
L 2419 2272 
L 2419 4013 
L 2944 4013 
z
" transform="scale(0.015625)"/>
      <path id="DejaVuSans-4f" d="M 2522 4238 
Q 1834 4238 1429 3725 
Q 1025 3213 1025 2328 
Q 1025 1447 1429 934 
Q 1834 422 2522 422 
Q 3209 422 3611 934 
Q 4013 1447 4013 2328 
Q 4013 3213 3611 3725 
Q 3209 4238 2522 4238 
z
M 2522 4750 
Q 3503 4750 4090 4092 
Q 4678 3434 4678 2328 
Q 4678 1225 4090 567 
Q 3503 -91 2522 -91 
Q 1538 -91 948 565 
Q 359 1222 359 2328 
Q 359 3434 948 4092 
Q 1538 4750 2522 4750 
z
" transform="scale(0.015625)"/>
      <path id="DejaVuSans-53" d="M 3425 4513 
L 3425 3897 
Q 3066 4069 2747 4153 
Q 2428 4238 2131 4238 
Q 1616 4238 1336 4038 
Q 1056 3838 1056 3469 
Q 1056 3159 1242 3001 
Q 1428 2844 1947 2747 
L 2328 2669 
Q 3034 2534 3370 2195 
Q 3706 1856 3706 1288 
Q 3706 609 3251 259 
Q 2797 -91 1919 -91 
Q 1588 -91 1214 -16 
Q 841 59 441 206 
L 441 856 
Q 825 641 1194 531 
Q 1563 422 1919 422 
Q 2459 422 2753 634 
Q 3047 847 3047 1241 
Q 3047 1584 2836 1778 
Q 2625 1972 2144 2069 
L 1759 2144 
Q 1053 2284 737 2584 
Q 422 2884 422 3419 
Q 422 4038 858 4394 
Q 1294 4750 2059 4750 
Q 2388 4750 2728 4690 
Q 3069 4631 3425 4513 
z
" transform="scale(0.015625)"/>
      <path id="DejaVuSans-78" d="M 3513 3500 
L 2247 1797 
L 3578 0 
L 2900 0 
L 1881 1375 
L 863 0 
L 184 0 
L 1544 1831 
L 300 3500 
L 978 3500 
L 1906 2253 
L 2834 3500 
L 3513 3500 
z
" transform="scale(0.015625)"/>
     </defs>
     <use xlink:href="#DejaVuSans-54"/>
     <use xlink:href="#DejaVuSans-6f" transform="translate(44.083984 0)"/>
     <use xlink:href="#DejaVuSans-74" transform="translate(105.265625 0)"/>
     <use xlink:href="#DejaVuSans-61" transform="translate(144.474609 0)"/>
     <use xlink:href="#DejaVuSans-6c" transform="translate(205.753906 0)"/>
     <use xlink:href="#DejaVuSans-20" transform="translate(233.537109 0)"/>
     <use xlink:href="#DejaVuSans-74" transform="translate(265.324219 0)"/>
     <use xlink:href="#DejaVuSans-61" transform="translate(304.533203 0)"/>
     <use xlink:href="#DejaVuSans-62" transform="translate(365.8125 0)"/>
     <use xlink:href="#DejaVuSans-6c" transform="translate(429.289062 0)"/>
     <use xlink:href="#DejaVuSans-65" transform="translate(457.072266 0)"/>
     <use xlink:href="#DejaVuSans-20" transform="translate(518.595703 0)"/>
     <use xlink:href="#DejaVuSans-2b" transform="translate(550.382812 0)"/>
     <use xlink:href="#DejaVuSans-20" transform="translate(634.171875 0)"/>
     <use xlink:href="#DejaVuSans-54" transform="translate(665.958984 0)"/>
     <use xlink:href="#DejaVuSans-4f" transform="translate(727.042969 0)"/>
     <use xlink:href="#DejaVuSans-41" transform="translate(804.003906 0)"/>
     <use xlink:href="#DejaVuSans-53" transform="translate(872.412109 0)"/>
     <use xlink:href="#DejaVuSans-54" transform="translate(935.888672 0)"/>
     <use xlink:href="#DejaVuSans-20" transform="translate(996.972656 0)"/>
     <use xlink:href="#DejaVuSans-2b" transform="translate(1028.759766 0)"/>
     <use xlink:href="#DejaVuSans-20" transform="translate(1112.548828 0)"/>
     <use xlink:href="#DejaVuSans-69" transform="translate(1144.335938 0)"/>
     <use xlink:href="#DejaVuSans-6e" transform="translate(1172.119141 0)"/>
     <use xlink:href="#DejaVuSans-64" transform="translate(1235.498047 0)"/>
     <use xlink:href="#DejaVuSans-65" transform="translate(1298.974609 0)"/>
     <use xlink:href="#DejaVuSans-78" transform="translate(1358.748047 0)"/>
     <use xlink:href="#DejaVuSans-20" transform="translate(1417.927734 0)"/>
     <use xlink:href="#DejaVuSans-73" transform="translate(1449.714844 0)"/>
     <use xlink:href="#DejaVuSans-69" transform="translate(1501.814453 0)"/>
     <use xlink:href="#DejaVuSans-7a" transform="translate(1529.597656 0)"/>
     <use xlink:href="#DejaVuSans-65" transform="translate(1582.087891 0)"/>
    </g>
   </g>
  </g>
  <g id="text_22">
   <!-- warmup 30s → clean 1m → kill-worker 1m → start-worker 1m → clean 1m -->
   <g style="fill: #555555" transform="translate(231.988359 26.208281) scale(0.09 -0.09)">
    <defs>
     <path id="DejaVuSans-2192" d="M 5050 2147 
L 5050 1866 
L 3822 638 
L 3447 1013 
L 4175 1741 
L 366 1741 
L 366 2272 
L 4175 2272 
L 3447 3000 
L 3822 3375 
L 5050 2147 
z
" transform="scale(0.015625)"/>
     <path id="DejaVuSans-2d" d="M 313 2009 
L 1997 2009 
L 1997 1497 
L 313 1497 
L 313 2009 
z
" transform="scale(0.015625)"/>
    </defs>
    <use xlink:href="#DejaVuSans-77"/>
    <use xlink:href="#DejaVuSans-61" transform="translate(81.787109 0)"/>
    <use xlink:href="#DejaVuSans-72" transform="translate(143.066406 0)"/>
    <use xlink:href="#DejaVuSans-6d" transform="translate(182.429688 0)"/>
    <use xlink:href="#DejaVuSans-75" transform="translate(279.841797 0)"/>
    <use xlink:href="#DejaVuSans-70" transform="translate(343.220703 0)"/>
    <use xlink:href="#DejaVuSans-20" transform="translate(406.697266 0)"/>
    <use xlink:href="#DejaVuSans-33" transform="translate(438.484375 0)"/>
    <use xlink:href="#DejaVuSans-30" transform="translate(502.107422 0)"/>
    <use xlink:href="#DejaVuSans-73" transform="translate(565.730469 0)"/>
    <use xlink:href="#DejaVuSans-20" transform="translate(617.830078 0)"/>
    <use xlink:href="#DejaVuSans-2192" transform="translate(649.617188 0)"/>
    <use xlink:href="#DejaVuSans-20" transform="translate(733.40625 0)"/>
    <use xlink:href="#DejaVuSans-63" transform="translate(765.193359 0)"/>
    <use xlink:href="#DejaVuSans-6c" transform="translate(820.173828 0)"/>
    <use xlink:href="#DejaVuSans-65" transform="translate(847.957031 0)"/>
    <use xlink:href="#DejaVuSans-61" transform="translate(909.480469 0)"/>
    <use xlink:href="#DejaVuSans-6e" transform="translate(970.759766 0)"/>
    <use xlink:href="#DejaVuSans-20" transform="translate(1034.138672 0)"/>
    <use xlink:href="#DejaVuSans-31" transform="translate(1065.925781 0)"/>
    <use xlink:href="#DejaVuSans-6d" transform="translate(1129.548828 0)"/>
    <use xlink:href="#DejaVuSans-20" transform="translate(1226.960938 0)"/>
    <use xlink:href="#DejaVuSans-2192" transform="translate(1258.748047 0)"/>
    <use xlink:href="#DejaVuSans-20" transform="translate(1342.537109 0)"/>
    <use xlink:href="#DejaVuSans-6b" transform="translate(1374.324219 0)"/>
    <use xlink:href="#DejaVuSans-69" transform="translate(1432.234375 0)"/>
    <use xlink:href="#DejaVuSans-6c" transform="translate(1460.017578 0)"/>
    <use xlink:href="#DejaVuSans-6c" transform="translate(1487.800781 0)"/>
    <use xlink:href="#DejaVuSans-2d" transform="translate(1515.583984 0)"/>
    <use xlink:href="#DejaVuSans-77" transform="translate(1551.667969 0)"/>
    <use xlink:href="#DejaVuSans-6f" transform="translate(1633.455078 0)"/>
    <use xlink:href="#DejaVuSans-72" transform="translate(1694.636719 0)"/>
    <use xlink:href="#DejaVuSans-6b" transform="translate(1735.75 0)"/>
    <use xlink:href="#DejaVuSans-65" transform="translate(1790.035156 0)"/>
    <use xlink:href="#DejaVuSans-72" transform="translate(1851.558594 0)"/>
    <use xlink:href="#DejaVuSans-20" transform="translate(1892.671875 0)"/>
    <use xlink:href="#DejaVuSans-31" transform="translate(1924.458984 0)"/>
    <use xlink:href="#DejaVuSans-6d" transform="translate(1988.082031 0)"/>
    <use xlink:href="#DejaVuSans-20" transform="translate(2085.494141 0)"/>
    <use xlink:href="#DejaVuSans-2192" transform="translate(2117.28125 0)"/>
    <use xlink:href="#DejaVuSans-20" transform="translate(2201.070312 0)"/>
    <use xlink:href="#DejaVuSans-73" transform="translate(2232.857422 0)"/>
    <use xlink:href="#DejaVuSans-74" transform="translate(2284.957031 0)"/>
    <use xlink:href="#DejaVuSans-61" transform="translate(2324.166016 0)"/>
    <use xlink:href="#DejaVuSans-72" transform="translate(2385.445312 0)"/>
    <use xlink:href="#DejaVuSans-74" transform="translate(2426.558594 0)"/>
    <use xlink:href="#DejaVuSans-2d" transform="translate(2465.767578 0)"/>
    <use xlink:href="#DejaVuSans-77" transform="translate(2501.851562 0)"/>
    <use xlink:href="#DejaVuSans-6f" transform="translate(2583.638672 0)"/>
    <use xlink:href="#DejaVuSans-72" transform="translate(2644.820312 0)"/>
    <use xlink:href="#DejaVuSans-6b" transform="translate(2685.933594 0)"/>
    <use xlink:href="#DejaVuSans-65" transform="translate(2740.21875 0)"/>
    <use xlink:href="#DejaVuSans-72" transform="translate(2801.742188 0)"/>
    <use xlink:href="#DejaVuSans-20" transform="translate(2842.855469 0)"/>
    <use xlink:href="#DejaVuSans-31" transform="translate(2874.642578 0)"/>
    <use xlink:href="#DejaVuSans-6d" transform="translate(2938.265625 0)"/>
    <use xlink:href="#DejaVuSans-20" transform="translate(3035.677734 0)"/>
    <use xlink:href="#DejaVuSans-2192" transform="translate(3067.464844 0)"/>
    <use xlink:href="#DejaVuSans-20" transform="translate(3151.253906 0)"/>
    <use xlink:href="#DejaVuSans-63" transform="translate(3183.041016 0)"/>
    <use xlink:href="#DejaVuSans-6c" transform="translate(3238.021484 0)"/>
    <use xlink:href="#DejaVuSans-65" transform="translate(3265.804688 0)"/>
    <use xlink:href="#DejaVuSans-61" transform="translate(3327.328125 0)"/>
    <use xlink:href="#DejaVuSans-6e" transform="translate(3388.607422 0)"/>
    <use xlink:href="#DejaVuSans-20" transform="translate(3451.986328 0)"/>
    <use xlink:href="#DejaVuSans-31" transform="translate(3483.773438 0)"/>
    <use xlink:href="#DejaVuSans-6d" transform="translate(3547.396484 0)"/>
   </g>
  </g>
 </g>
 <defs>
  <clipPath id="p92872a2d10">
   <rect x="57.17" y="83.808" width="600.02038" height="248.632"/>
  </clipPath>
 </defs>
</svg>
